<?xml version="1.0" encoding="UTF-8"?>
<!-- Do not edit this file with editors other than draw.io -->
<!DOCTYPE svg PUBLIC "-//W3C//DTD SVG 1.1//EN" "http://www.w3.org/Graphics/SVG/1.1/DTD/svg11.dtd">
<svg xmlns="http://www.w3.org/2000/svg" xmlns:xlink="http://www.w3.org/1999/xlink" version="1.1" width="131px" height="101px" viewBox="-0.5 -0.5 131 101" content="&lt;mxfile host=&quot;Electron&quot; modified=&quot;2024-12-03T14:28:45.782Z&quot; agent=&quot;Mozilla/5.0 (Windows NT 10.0; Win64; x64) AppleWebKit/537.36 (KHTML, like Gecko) draw.io/24.4.0 Chrome/120.0.6099.109 Electron/28.1.0 Safari/537.36&quot; etag=&quot;bKMFwPFNPBXhdhzNLsKk&quot; version=&quot;24.4.0&quot; type=&quot;device&quot; scale=&quot;1&quot; border=&quot;0&quot;&gt;&#10;  &lt;diagram name=&quot;Page-1&quot; id=&quot;8SEOAbJ4F6ENoUbZDOBO&quot;&gt;&#10;    &lt;mxGraphModel dx=&quot;472&quot; dy=&quot;827&quot; grid=&quot;1&quot; gridSize=&quot;10&quot; guides=&quot;1&quot; tooltips=&quot;1&quot; connect=&quot;1&quot; arrows=&quot;1&quot; fold=&quot;1&quot; page=&quot;1&quot; pageScale=&quot;1&quot; pageWidth=&quot;1169&quot; pageHeight=&quot;827&quot; math=&quot;0&quot; shadow=&quot;0&quot;&gt;&#10;      &lt;root&gt;&#10;        &lt;mxCell id=&quot;0&quot; /&gt;&#10;        &lt;mxCell id=&quot;1&quot; parent=&quot;0&quot; /&gt;&#10;        &lt;mxCell id=&quot;SRgfI5QN9cAayJcJiEQV-2&quot; value=&quot;&quot; style=&quot;shape=cylinder3;whiteSpace=wrap;html=1;boundedLbl=1;backgroundOutline=1;size=3;rotation=-180;fillColor=#e1d5e7;strokeColor=#9673a6;&quot; vertex=&quot;1&quot; parent=&quot;1&quot;&gt;&#10;          &lt;mxGeometry x=&quot;190&quot; y=&quot;300&quot; width=&quot;60&quot; height=&quot;20&quot; as=&quot;geometry&quot; /&gt;&#10;        &lt;/mxCell&gt;&#10;        &lt;mxCell id=&quot;SRgfI5QN9cAayJcJiEQV-1&quot; value=&quot;&quot; style=&quot;rounded=1;whiteSpace=wrap;html=1;fillColor=#4C0099;shadow=1;&quot; vertex=&quot;1&quot; parent=&quot;1&quot;&gt;&#10;          &lt;mxGeometry x=&quot;160&quot; y=&quot;320&quot; width=&quot;120&quot; height=&quot;60&quot; as=&quot;geometry&quot; /&gt;&#10;        &lt;/mxCell&gt;&#10;        &lt;mxCell id=&quot;SRgfI5QN9cAayJcJiEQV-4&quot; value=&quot;&quot; style=&quot;triangle;whiteSpace=wrap;html=1;shadow=1;fillColor=#e1d5e7;strokeColor=#9673a6;&quot; vertex=&quot;1&quot; parent=&quot;1&quot;&gt;&#10;          &lt;mxGeometry x=&quot;260&quot; y=&quot;340&quot; width=&quot;20&quot; height=&quot;20&quot; as=&quot;geometry&quot; /&gt;&#10;        &lt;/mxCell&gt;&#10;        &lt;mxCell id=&quot;SRgfI5QN9cAayJcJiEQV-3&quot; value=&quot;&quot; style=&quot;shape=cylinder3;whiteSpace=wrap;html=1;boundedLbl=1;backgroundOutline=1;size=3;rotation=-180;fillColor=#e1d5e7;strokeColor=#9673a6;&quot; vertex=&quot;1&quot; parent=&quot;1&quot;&gt;&#10;          &lt;mxGeometry x=&quot;190&quot; y=&quot;380&quot; width=&quot;60&quot; height=&quot;20&quot; as=&quot;geometry&quot; /&gt;&#10;        &lt;/mxCell&gt;&#10;      &lt;/root&gt;&#10;    &lt;/mxGraphModel&gt;&#10;  &lt;/diagram&gt;&#10;&lt;/mxfile&gt;&#10;" style="background-color: rgb(255, 255, 255);"><defs/><rect fill="#ffffff" width="100%" height="100%" x="0" y="0"/><g><g><path d="M 34 3 C 34 1.34 47.43 0 64 0 C 71.96 0 79.59 0.32 85.21 0.88 C 90.84 1.44 94 2.2 94 3 L 94 17 C 94 18.66 80.57 20 64 20 C 47.43 20 34 18.66 34 17 Z" fill="#e1d5e7" stroke="#9673a6" stroke-miterlimit="10" transform="rotate(-180,64,10)" pointer-events="all"/><path d="M 94 3 C 94 4.66 80.57 6 64 6 C 47.43 6 34 4.66 34 3" fill="none" stroke="#9673a6" stroke-miterlimit="10" transform="rotate(-180,64,10)" pointer-events="all"/></g><g style="filter: drop-shadow(rgba(0, 0, 0, 0.25) 2px 3px 2px);"><rect x="4" y="20" width="120" height="60" rx="9" ry="9" fill="#4c0099" stroke="rgb(0, 0, 0)" pointer-events="all"/></g><g style="filter: drop-shadow(rgba(0, 0, 0, 0.25) 2px 3px 2px);"><path d="M 104 40 L 124 50 L 104 60 Z" fill="#e1d5e7" stroke="#9673a6" stroke-miterlimit="10" pointer-events="all"/></g><g><path d="M 34 83 C 34 81.34 47.43 80 64 80 C 71.96 80 79.59 80.32 85.21 80.88 C 90.84 81.44 94 82.2 94 83 L 94 97 C 94 98.66 80.57 100 64 100 C 47.43 100 34 98.66 34 97 Z" fill="#e1d5e7" stroke="#9673a6" stroke-miterlimit="10" transform="rotate(-180,64,90)" pointer-events="all"/><path d="M 94 83 C 94 84.66 80.57 86 64 86 C 47.43 86 34 84.66 34 83" fill="none" stroke="#9673a6" stroke-miterlimit="10" transform="rotate(-180,64,90)" pointer-events="all"/></g></g></svg>